<svg xmlns="http://www.w3.org/2000/svg" xmlns:xlink="http://www.w3.org/1999/xlink" width="400" zoomAndPan="magnify" viewBox="0 0 300 149.999998" height="200" preserveAspectRatio="xMidYMid meet" version="1.0"><defs><clipPath id="c11c49fae3"><path d="M 40 20 L 53 20 L 53 29 L 40 29 Z M 40 20 " clip-rule="nonzero"/></clipPath><clipPath id="bf53131060"><path d="M 40.355469 27.90625 C 40.355469 27.90625 46.4375 22.738281 52.441406 20.539062 C 52.441406 20.539062 46.609375 23.960938 42.832031 28.113281 Z M 40.355469 27.90625 " clip-rule="nonzero"/></clipPath><clipPath id="ba3e5ddf9a"><path d="M 43 19 L 55 19 L 55 29 L 43 29 Z M 43 19 " clip-rule="nonzero"/></clipPath><clipPath id="b1e6396668"><path d="M 43.988281 28.113281 L 48.945312 27.484375 C 48.945312 27.484375 51.542969 22.507812 54.777344 19.789062 C 54.785156 19.789062 47.722656 23.460938 43.988281 28.113281 Z M 43.988281 28.113281 " clip-rule="nonzero"/></clipPath><clipPath id="212396c3d0"><path d="M 50 19 L 58 19 L 58 28 L 50 28 Z M 50 19 " clip-rule="nonzero"/></clipPath><clipPath id="53add2801b"><path d="M 56.386719 19.414062 C 56.386719 19.414062 52.730469 21.789062 50.539062 27.277344 L 57.246094 25.53125 Z M 56.386719 19.414062 " clip-rule="nonzero"/></clipPath><clipPath id="bdb374a4ff"><path d="M 57 19 L 66 19 L 66 26 L 57 26 Z M 57 19 " clip-rule="nonzero"/></clipPath><clipPath id="a98fb6f23f"><path d="M 57.132812 19.300781 L 58.761719 25.046875 C 58.761719 25.046875 62.164062 24.207031 65.328125 22.738281 C 65.335938 22.738281 61.277344 19.695312 57.132812 19.300781 Z M 57.132812 19.300781 " clip-rule="nonzero"/></clipPath><clipPath id="e52f119752"><path d="M 58 18 L 72 18 L 72 23 L 58 23 Z M 58 18 " clip-rule="nonzero"/></clipPath><clipPath id="b389384488"><path d="M 58.800781 18.746094 C 58.800781 18.746094 66.636719 18.160156 71.507812 20.066406 C 71.507812 20.066406 68.292969 21.414062 66.785156 22.171875 C 66.777344 22.171875 62.839844 19.519531 58.800781 18.746094 Z M 58.800781 18.746094 " clip-rule="nonzero"/></clipPath><clipPath id="bdedaac121"><path d="M 60 17 L 76 17 L 76 20 L 60 20 Z M 60 17 " clip-rule="nonzero"/></clipPath><clipPath id="00cc488a3d"><path d="M 60.699219 17.902344 C 60.699219 17.902344 70.152344 16.648438 75.09375 17.667969 L 72.808594 19.292969 C 72.808594 19.300781 66.261719 17.996094 60.699219 17.902344 Z M 60.699219 17.902344 " clip-rule="nonzero"/></clipPath><clipPath id="a550a35dd6"><path d="M 47 27 L 61 27 L 61 41 L 47 41 Z M 47 27 " clip-rule="nonzero"/></clipPath><clipPath id="5feda4c973"><path d="M 49.753906 29.09375 C 49.753906 29.09375 55.832031 27.800781 57.789062 27.277344 L 60.195312 37.609375 C 60.195312 37.609375 51.601562 40.328125 47.023438 40.855469 C 47.023438 40.847656 47.378906 34.050781 49.753906 29.09375 Z M 49.753906 29.09375 " clip-rule="nonzero"/></clipPath><clipPath id="92e88381d6"><path d="M 59 24 L 75 24 L 75 37 L 59 37 Z M 59 24 " clip-rule="nonzero"/></clipPath><clipPath id="e455cc85a3"><path d="M 59.355469 26.578125 L 62.5 36.769531 C 62.5 36.769531 70.675781 34.503906 74.9375 32.683594 C 74.9375 32.683594 70.292969 27.019531 66.984375 24.160156 Z M 59.355469 26.578125 " clip-rule="nonzero"/></clipPath><clipPath id="130b446486"><path d="M 68 20 L 87 20 L 87 32 L 68 32 Z M 68 20 " clip-rule="nonzero"/></clipPath><clipPath id="a111b06688"><path d="M 68.898438 23.578125 L 74.230469 20.8125 C 74.230469 20.8125 81.964844 23.761719 86.578125 27.558594 C 86.578125 27.558594 82 30 77.179688 31.957031 C 77.175781 31.949219 72.390625 26.125 68.898438 23.578125 Z M 68.898438 23.578125 " clip-rule="nonzero"/></clipPath><clipPath id="3af28391c3"><path d="M 75 18 L 93 18 L 93 27 L 75 27 Z M 75 18 " clip-rule="nonzero"/></clipPath><clipPath id="cbc7037780"><path d="M 75.699219 20.066406 L 77.960938 18.179688 C 77.960938 18.179688 85.4375 19.480469 92.238281 23.347656 C 92.238281 23.347656 89.753906 25.726562 88.09375 26.578125 C 88.09375 26.578125 82.464844 22.378906 75.699219 20.066406 Z M 75.699219 20.066406 " clip-rule="nonzero"/></clipPath><clipPath id="41c350f992"><path d="M 63 34 L 84 34 L 84 53 L 63 53 Z M 63 34 " clip-rule="nonzero"/></clipPath><clipPath id="4781d3ab54"><path d="M 63.375 39.117188 L 76.441406 34.691406 C 76.441406 34.691406 81.226562 41.617188 83.707031 47.199219 L 67.285156 52.746094 Z M 63.375 39.117188 " clip-rule="nonzero"/></clipPath><clipPath id="d07def31d1"><path d="M 78 29 L 99 29 L 99 46 L 78 46 Z M 78 29 " clip-rule="nonzero"/></clipPath><clipPath id="675237a63e"><path d="M 78.769531 33.882812 C 78.769531 33.882812 85.664062 30.953125 88.667969 29.277344 C 88.667969 29.277344 93.3125 32.683594 98.96875 40.1875 C 98.96875 40.1875 92.351562 43.886719 86.464844 45.914062 Z M 78.769531 33.882812 " clip-rule="nonzero"/></clipPath><clipPath id="001b88c940"><path d="M 90 24 L 107 24 L 107 40 L 90 40 Z M 90 24 " clip-rule="nonzero"/></clipPath><clipPath id="9f8fc7dbe0"><path d="M 90.316406 28.292969 C 90.316406 28.292969 93.390625 26.339844 94.71875 24.625 C 94.71875 24.625 102.648438 29.75 106.25 34.605469 C 106.25 34.605469 104.175781 37.222656 100.765625 39.144531 C 100.757812 39.144531 93.597656 30.246094 90.316406 28.292969 Z M 90.316406 28.292969 " clip-rule="nonzero"/></clipPath><clipPath id="945412bcba"><path d="M 87 42 L 108 42 L 108 64 L 87 64 Z M 87 42 " clip-rule="nonzero"/></clipPath><clipPath id="4f33f07ebc"><path d="M 87.765625 48.558594 C 87.765625 48.558594 99.15625 43.609375 100.34375 42.5625 C 100.34375 42.5625 105.210938 49.445312 107.3125 56.796875 C 107.3125 56.796875 98.511719 61.777344 93.757812 63.167969 Z M 87.765625 48.558594 " clip-rule="nonzero"/></clipPath><clipPath id="cd27b38e33"><path d="M 102 36 L 116 36 L 116 56 L 102 56 Z M 102 36 " clip-rule="nonzero"/></clipPath><clipPath id="700f15beeb"><path d="M 102.433594 41.410156 C 102.433594 41.410156 105.964844 39.242188 108.027344 36.835938 C 108.027344 36.835938 113.777344 44.515625 115.171875 50.652344 C 115.171875 50.652344 112.910156 53.398438 109.300781 55.539062 C 109.308594 55.539062 106.089844 46.953125 102.433594 41.410156 Z M 102.433594 41.410156 " clip-rule="nonzero"/></clipPath><clipPath id="239ee54d57"><path d="M 110 53 L 118 53 L 118 74 L 110 74 Z M 110 53 " clip-rule="nonzero"/></clipPath><clipPath id="f11d2dea34"><path d="M 110.242188 58.472656 C 110.242188 58.472656 114.246094 56.097656 116.15625 53.726562 C 116.15625 53.726562 118.25 62.285156 117.136719 69.261719 C 117.136719 69.261719 114.714844 72.289062 112.011719 73.261719 C 112.011719 73.265625 111.511719 65.761719 110.242188 58.472656 Z M 110.242188 58.472656 " clip-rule="nonzero"/></clipPath></defs><path fill="#ffffff" d="M 136.734375 97.8125 C 137.851562 97.8125 138.738281 98.085938 139.40625 98.628906 C 140.074219 99.167969 140.453125 99.921875 140.546875 100.867188 L 138.519531 100.867188 C 138.34375 99.941406 137.75 99.480469 136.730469 99.480469 C 135.996094 99.480469 135.40625 99.761719 134.980469 100.320312 C 134.554688 100.878906 134.339844 101.644531 134.339844 102.625 C 134.339844 103.625 134.546875 104.414062 134.96875 104.984375 C 135.386719 105.558594 135.960938 105.84375 136.6875 105.84375 C 137.351562 105.84375 137.851562 105.660156 138.203125 105.285156 C 138.558594 104.914062 138.738281 104.378906 138.746094 103.671875 L 136.574219 103.671875 L 136.574219 102.132812 L 140.507812 102.132812 L 140.507812 107.152344 L 138.910156 107.152344 L 138.910156 106.164062 L 138.882812 106.164062 C 138.332031 106.945312 137.4375 107.332031 136.214844 107.332031 C 135.039062 107.332031 134.105469 106.910156 133.417969 106.066406 C 132.730469 105.226562 132.382812 104.074219 132.382812 102.621094 C 132.382812 101.132812 132.773438 99.953125 133.550781 99.09375 C 134.339844 98.246094 135.394531 97.8125 136.734375 97.8125 Z M 136.734375 97.8125 " fill-opacity="1" fill-rule="nonzero"/><path fill="#ffffff" d="M 146.988281 98.019531 L 146.988281 105.539062 L 151.304688 105.539062 L 151.304688 107.160156 L 145.097656 107.160156 L 145.097656 98.019531 Z M 146.988281 98.019531 " fill-opacity="1" fill-rule="nonzero"/><path fill="#ffffff" d="M 155.273438 99.09375 C 156.042969 98.242188 157.105469 97.8125 158.453125 97.8125 C 159.800781 97.8125 160.855469 98.242188 161.628906 99.09375 C 162.402344 99.945312 162.78125 101.113281 162.78125 102.59375 C 162.78125 104.074219 162.394531 105.238281 161.628906 106.09375 C 160.855469 106.945312 159.800781 107.371094 158.453125 107.371094 C 157.105469 107.371094 156.050781 106.945312 155.273438 106.09375 C 154.5 105.238281 154.121094 104.074219 154.121094 102.59375 C 154.121094 101.113281 154.507812 99.945312 155.273438 99.09375 Z M 160.1875 100.3125 C 159.757812 99.761719 159.179688 99.488281 158.445312 99.488281 C 157.710938 99.488281 157.128906 99.761719 156.703125 100.3125 C 156.277344 100.867188 156.070312 101.625 156.070312 102.59375 C 156.070312 103.558594 156.28125 104.320312 156.703125 104.871094 C 157.128906 105.425781 157.703125 105.699219 158.445312 105.699219 C 159.179688 105.699219 159.757812 105.425781 160.1875 104.871094 C 160.613281 104.320312 160.820312 103.558594 160.820312 102.59375 C 160.828125 101.625 160.613281 100.867188 160.1875 100.3125 Z M 160.1875 100.3125 " fill-opacity="1" fill-rule="nonzero"/><path fill="#ffffff" d="M 166.878906 107.160156 L 166.878906 98.019531 L 170.171875 98.019531 C 171.277344 98.019531 172.105469 98.226562 172.667969 98.648438 C 173.21875 99.066406 173.5 99.640625 173.5 100.367188 C 173.5 101.394531 172.964844 102.105469 171.90625 102.5 L 171.90625 102.527344 C 172.53125 102.667969 172.988281 102.90625 173.28125 103.253906 C 173.574219 103.597656 173.71875 104.066406 173.71875 104.660156 C 173.71875 105.433594 173.433594 106.039062 172.851562 106.484375 C 172.273438 106.929688 171.476562 107.160156 170.457031 107.160156 Z M 170.191406 99.558594 L 168.761719 99.558594 L 168.761719 101.78125 L 170.097656 101.78125 C 170.644531 101.78125 171.042969 101.6875 171.296875 101.511719 C 171.550781 101.332031 171.679688 101.046875 171.679688 100.652344 C 171.679688 100.28125 171.558594 100 171.324219 99.828125 C 171.097656 99.648438 170.71875 99.558594 170.191406 99.558594 Z M 170.117188 103.273438 L 168.769531 103.273438 L 168.769531 105.605469 L 170.171875 105.605469 C 170.746094 105.605469 171.15625 105.511719 171.417969 105.332031 C 171.671875 105.144531 171.804688 104.859375 171.804688 104.464844 C 171.804688 104.046875 171.671875 103.746094 171.410156 103.550781 C 171.152344 103.359375 170.71875 103.273438 170.117188 103.273438 Z M 170.117188 103.273438 " fill-opacity="1" fill-rule="nonzero"/><path fill="#ffffff" d="M 183.445312 107.160156 L 182.738281 104.925781 L 179.226562 104.925781 L 178.503906 107.160156 L 176.523438 107.160156 L 179.699219 98.019531 L 182.242188 98.019531 L 185.417969 107.160156 Z M 179.738281 103.304688 L 182.222656 103.304688 L 182.027344 102.707031 C 181.609375 101.375 181.261719 100.179688 180.988281 99.140625 L 180.960938 99.140625 C 180.640625 100.339844 180.300781 101.527344 179.933594 102.707031 Z M 179.738281 103.304688 " fill-opacity="1" fill-rule="nonzero"/><path fill="#ffffff" d="M 190.71875 98.019531 L 190.71875 105.539062 L 195.035156 105.539062 L 195.035156 107.160156 L 188.828125 107.160156 L 188.828125 98.019531 Z M 190.71875 98.019531 " fill-opacity="1" fill-rule="nonzero"/><path fill="#ffffff" d="M 210.632812 98.019531 L 210.632812 99.640625 L 206.199219 99.640625 L 206.199219 101.707031 L 210.339844 101.707031 L 210.339844 103.3125 L 206.199219 103.3125 L 206.199219 105.546875 L 210.753906 105.546875 L 210.753906 107.164062 L 204.3125 107.164062 L 204.3125 98.027344 L 210.632812 98.027344 Z M 210.632812 98.019531 " fill-opacity="1" fill-rule="nonzero"/><path fill="#ffffff" d="M 221.863281 98.019531 L 219.019531 107.160156 L 216.660156 107.160156 L 213.816406 98.019531 L 215.742188 98.019531 L 216.839844 101.574219 C 217.230469 102.824219 217.558594 104.066406 217.824219 105.304688 L 217.851562 105.304688 C 218.09375 104.21875 218.421875 102.972656 218.839844 101.574219 L 219.933594 98.019531 Z M 221.863281 98.019531 " fill-opacity="1" fill-rule="nonzero"/><path fill="#ffffff" d="M 231.628906 98.019531 L 231.628906 99.640625 L 227.195312 99.640625 L 227.195312 101.707031 L 231.332031 101.707031 L 231.332031 103.3125 L 227.195312 103.3125 L 227.195312 105.546875 L 231.746094 105.546875 L 231.746094 107.164062 L 225.308594 107.164062 L 225.308594 98.027344 L 231.628906 98.027344 Z M 231.628906 98.019531 " fill-opacity="1" fill-rule="nonzero"/><path fill="#ffffff" d="M 243.871094 98.019531 L 243.871094 107.160156 L 241.191406 107.160156 L 239.414062 103.453125 C 238.761719 102.074219 238.207031 100.820312 237.746094 99.679688 L 237.71875 99.679688 C 237.785156 101.09375 237.820312 102.414062 237.820312 103.644531 L 237.820312 107.164062 L 236.011719 107.164062 L 236.011719 98.027344 L 238.695312 98.027344 L 240.46875 101.734375 C 241.125 103.113281 241.675781 104.367188 242.136719 105.503906 L 242.164062 105.503906 C 242.097656 104.09375 242.0625 102.773438 242.0625 101.539062 L 242.0625 98.019531 Z M 243.871094 98.019531 " fill-opacity="1" fill-rule="nonzero"/><path fill="#ffffff" d="M 255.117188 98.019531 L 255.117188 99.640625 L 252.242188 99.640625 L 252.242188 107.160156 L 250.351562 107.160156 L 250.351562 99.640625 L 247.476562 99.640625 L 247.476562 98.019531 Z M 255.117188 98.019531 " fill-opacity="1" fill-rule="nonzero"/><path fill="#ffffff" d="M 261.492188 97.8125 C 262.632812 97.8125 263.492188 98.066406 264.082031 98.582031 C 264.667969 99.085938 264.960938 99.832031 264.960938 100.820312 L 263.046875 100.820312 C 263.046875 100.339844 262.90625 99.972656 262.632812 99.714844 C 262.359375 99.453125 261.964844 99.320312 261.449219 99.320312 C 261.03125 99.320312 260.691406 99.414062 260.4375 99.59375 C 260.175781 99.78125 260.050781 100.019531 260.050781 100.320312 C 260.050781 100.652344 260.191406 100.90625 260.46875 101.078125 C 260.75 101.253906 261.269531 101.433594 262.046875 101.621094 C 262.464844 101.71875 262.800781 101.8125 263.054688 101.886719 C 263.304688 101.964844 263.59375 102.078125 263.90625 102.234375 C 264.21875 102.386719 264.46875 102.558594 264.640625 102.738281 C 264.816406 102.925781 264.953125 103.164062 265.082031 103.460938 C 265.203125 103.753906 265.261719 104.09375 265.261719 104.480469 C 265.261719 105.34375 264.933594 106.039062 264.28125 106.570312 C 263.625 107.105469 262.765625 107.363281 261.691406 107.363281 C 260.535156 107.363281 259.628906 107.085938 258.976562 106.53125 C 258.320312 105.980469 257.996094 105.183594 257.996094 104.160156 L 259.949219 104.160156 C 259.949219 105.277344 260.542969 105.839844 261.726562 105.839844 C 262.207031 105.839844 262.585938 105.730469 262.871094 105.523438 C 263.160156 105.320312 263.304688 105.03125 263.304688 104.671875 C 263.304688 104.300781 263.179688 104.03125 262.917969 103.886719 C 262.660156 103.738281 262.160156 103.566406 261.417969 103.378906 C 260.96875 103.265625 260.628906 103.171875 260.398438 103.105469 C 260.164062 103.03125 259.875 102.917969 259.535156 102.765625 C 259.195312 102.613281 258.941406 102.445312 258.773438 102.273438 C 258.601562 102.097656 258.453125 101.859375 258.328125 101.558594 C 258.199219 101.257812 258.132812 100.917969 258.132812 100.535156 C 258.132812 99.726562 258.449219 99.074219 259.074219 98.574219 C 259.675781 98.066406 260.488281 97.8125 261.492188 97.8125 Z M 261.492188 97.8125 " fill-opacity="1" fill-rule="nonzero"/><path fill="#ffffff" d="M 149.527344 36.769531 L 149.527344 89.960938 L 132.597656 89.960938 L 132.597656 36.769531 Z M 149.527344 36.769531 " fill-opacity="1" fill-rule="nonzero"/><path fill="#ffffff" d="M 201.96875 63.363281 C 200.601562 65.894531 198.671875 67.957031 196.191406 69.546875 L 207.230469 89.960938 L 189.925781 89.960938 L 181.421875 72.902344 L 175.457031 72.902344 L 175.457031 89.960938 L 159.566406 89.960938 L 159.566406 36.769531 L 182.390625 36.769531 C 186.46875 36.769531 189.882812 37.230469 192.648438 38.148438 C 195.410156 39.070312 197.632812 40.308594 199.320312 41.875 C 201.007812 43.441406 202.214844 45.289062 202.9375 47.425781 C 203.660156 49.558594 204.019531 51.820312 204.019531 54.207031 C 204.019531 57.777344 203.332031 60.832031 201.96875 63.363281 Z M 181.113281 60.609375 C 183.652344 60.609375 185.453125 60.136719 186.519531 59.199219 C 187.589844 58.25 188.121094 56.839844 188.121094 54.953125 C 188.121094 53.066406 187.589844 51.644531 186.519531 50.707031 C 185.453125 49.761719 183.652344 49.292969 181.113281 49.292969 L 175.441406 49.292969 L 175.441406 60.617188 L 181.113281 60.617188 Z M 181.113281 60.609375 " fill-opacity="1" fill-rule="nonzero"/><path fill="#ffffff" d="M 228.484375 81.390625 L 226.167969 89.957031 L 209.464844 89.957031 L 226.769531 36.761719 L 247.65625 36.761719 L 264.816406 89.957031 L 247.730469 89.957031 L 245.339844 81.390625 Z M 241.765625 68.207031 L 236.914062 50.554688 L 232.0625 68.207031 Z M 241.765625 68.207031 " fill-opacity="1" fill-rule="nonzero"/><g clip-path="url(#c11c49fae3)"><g clip-path="url(#bf53131060)"><path fill="#ffffff" d="M 40.355469 20.539062 L 40.355469 28.113281 L 52.441406 28.113281 L 52.441406 20.539062 Z M 40.355469 20.539062 " fill-opacity="1" fill-rule="nonzero"/></g></g><g clip-path="url(#ba3e5ddf9a)"><g clip-path="url(#b1e6396668)"><path fill="#ffffff" d="M 43.988281 19.789062 L 43.988281 28.113281 L 54.785156 28.113281 L 54.785156 19.789062 Z M 43.988281 19.789062 " fill-opacity="1" fill-rule="nonzero"/></g></g><g clip-path="url(#212396c3d0)"><g clip-path="url(#53add2801b)"><path fill="#ffffff" d="M 50.539062 19.414062 L 50.539062 27.277344 L 57.246094 27.277344 L 57.246094 19.414062 Z M 50.539062 19.414062 " fill-opacity="1" fill-rule="nonzero"/></g></g><g clip-path="url(#bdb374a4ff)"><g clip-path="url(#a98fb6f23f)"><path fill="#ffffff" d="M 57.132812 19.300781 L 57.132812 25.046875 L 65.335938 25.046875 L 65.335938 19.300781 Z M 57.132812 19.300781 " fill-opacity="1" fill-rule="nonzero"/></g></g><g clip-path="url(#e52f119752)"><g clip-path="url(#b389384488)"><path fill="#ffffff" d="M 58.800781 18.160156 L 58.800781 22.171875 L 71.507812 22.171875 L 71.507812 18.160156 Z M 58.800781 18.160156 " fill-opacity="1" fill-rule="nonzero"/></g></g><g clip-path="url(#bdedaac121)"><g clip-path="url(#00cc488a3d)"><path fill="#ffffff" d="M 60.699219 16.648438 L 60.699219 19.300781 L 75.09375 19.300781 L 75.09375 16.648438 Z M 60.699219 16.648438 " fill-opacity="1" fill-rule="nonzero"/></g></g><g clip-path="url(#a550a35dd6)"><g clip-path="url(#5feda4c973)"><path fill="#ffffff" d="M 47.023438 27.277344 L 47.023438 40.855469 L 60.195312 40.855469 L 60.195312 27.277344 Z M 47.023438 27.277344 " fill-opacity="1" fill-rule="nonzero"/></g></g><g clip-path="url(#92e88381d6)"><g clip-path="url(#e455cc85a3)"><path fill="#ffffff" d="M 59.355469 24.160156 L 59.355469 36.769531 L 74.9375 36.769531 L 74.9375 24.160156 Z M 59.355469 24.160156 " fill-opacity="1" fill-rule="nonzero"/></g></g><g clip-path="url(#130b446486)"><g clip-path="url(#a111b06688)"><path fill="#ffffff" d="M 68.898438 20.8125 L 68.898438 31.957031 L 86.578125 31.957031 L 86.578125 20.8125 Z M 68.898438 20.8125 " fill-opacity="1" fill-rule="nonzero"/></g></g><g clip-path="url(#3af28391c3)"><g clip-path="url(#cbc7037780)"><path fill="#ffffff" d="M 75.699219 18.179688 L 75.699219 26.578125 L 92.238281 26.578125 L 92.238281 18.179688 Z M 75.699219 18.179688 " fill-opacity="1" fill-rule="nonzero"/></g></g><g clip-path="url(#41c350f992)"><g clip-path="url(#4781d3ab54)"><path fill="#ffffff" d="M 63.375 34.691406 L 63.375 52.746094 L 83.707031 52.746094 L 83.707031 34.691406 Z M 63.375 34.691406 " fill-opacity="1" fill-rule="nonzero"/></g></g><g clip-path="url(#d07def31d1)"><g clip-path="url(#675237a63e)"><path fill="#ffffff" d="M 78.769531 29.277344 L 78.769531 45.914062 L 98.96875 45.914062 L 98.96875 29.277344 Z M 78.769531 29.277344 " fill-opacity="1" fill-rule="nonzero"/></g></g><g clip-path="url(#001b88c940)"><g clip-path="url(#9f8fc7dbe0)"><path fill="#ffffff" d="M 90.316406 24.625 L 90.316406 39.144531 L 106.25 39.144531 L 106.25 24.625 Z M 90.316406 24.625 " fill-opacity="1" fill-rule="nonzero"/></g></g><g clip-path="url(#945412bcba)"><g clip-path="url(#4f33f07ebc)"><path fill="#ffffff" d="M 87.765625 42.5625 L 87.765625 63.167969 L 107.3125 63.167969 L 107.3125 42.5625 Z M 87.765625 42.5625 " fill-opacity="1" fill-rule="nonzero"/></g></g><g clip-path="url(#cd27b38e33)"><g clip-path="url(#700f15beeb)"><path fill="#ffffff" d="M 102.433594 36.835938 L 102.433594 55.539062 L 115.171875 55.539062 L 115.171875 36.835938 Z M 102.433594 36.835938 " fill-opacity="1" fill-rule="nonzero"/></g></g><g clip-path="url(#239ee54d57)"><g clip-path="url(#f11d2dea34)"><path fill="#ffffff" d="M 110.242188 53.726562 L 110.242188 73.265625 L 118.25 73.265625 L 118.25 53.726562 Z M 110.242188 53.726562 " fill-opacity="1" fill-rule="nonzero"/></g></g><path fill="#ffffff" d="M 21.730469 67.054688 C 21.730469 67.054688 57.019531 86.175781 59.355469 39.144531 C 59.355469 39.144531 70.546875 69.640625 54.917969 121.695312 C 54.917969 121.695312 62.050781 98.667969 21.730469 67.054688 Z M 21.730469 67.054688 " fill-opacity="1" fill-rule="nonzero"/><path fill="#ffffff" d="M 49.445312 70.707031 C 49.445312 70.707031 67.609375 101.785156 91.648438 63.167969 C 91.648438 63.167969 79.023438 102.433594 50.933594 127.839844 C 50.941406 127.839844 67.246094 109.042969 49.445312 70.707031 Z M 49.445312 70.707031 " fill-opacity="1" fill-rule="nonzero"/><path fill="#ffffff" d="M 68.171875 76.566406 C 68.171875 76.566406 81.847656 117.855469 110.234375 80.417969 C 110.234375 80.417969 99.011719 118.347656 50.933594 127.839844 C 50.941406 127.839844 71.226562 107.945312 68.171875 76.566406 Z M 68.171875 76.566406 " fill-opacity="1" fill-rule="nonzero"/><path fill="#ffffff" d="M 47.910156 49.625 C 47.910156 50.339844 47.839844 51.042969 47.703125 51.742188 C 47.5625 52.4375 47.359375 53.117188 47.085938 53.773438 C 46.8125 54.429688 46.476562 55.054688 46.082031 55.648438 C 45.6875 56.238281 45.238281 56.785156 44.734375 57.289062 C 44.230469 57.792969 43.679688 58.242188 43.089844 58.636719 C 42.496094 59.03125 41.871094 59.367188 41.210938 59.640625 C 40.554688 59.910156 39.875 60.117188 39.175781 60.253906 C 38.476562 60.394531 37.773438 60.464844 37.058594 60.464844 C 36.347656 60.464844 35.640625 60.394531 34.941406 60.253906 C 34.242188 60.117188 33.566406 59.910156 32.90625 59.640625 C 32.25 59.367188 31.625 59.03125 31.03125 58.636719 C 30.4375 58.242188 29.890625 57.792969 29.386719 57.289062 C 28.882812 56.785156 28.433594 56.238281 28.039062 55.648438 C 27.640625 55.054688 27.308594 54.429688 27.035156 53.773438 C 26.761719 53.117188 26.554688 52.4375 26.417969 51.742188 C 26.277344 51.042969 26.207031 50.339844 26.207031 49.625 C 26.207031 48.914062 26.277344 48.210938 26.417969 47.511719 C 26.554688 46.8125 26.761719 46.136719 27.035156 45.480469 C 27.308594 44.820312 27.640625 44.199219 28.039062 43.605469 C 28.433594 43.015625 28.882812 42.464844 29.386719 41.964844 C 29.890625 41.460938 30.4375 41.011719 31.03125 40.617188 C 31.625 40.21875 32.25 39.886719 32.90625 39.613281 C 33.566406 39.34375 34.242188 39.136719 34.941406 38.996094 C 35.640625 38.859375 36.347656 38.789062 37.058594 38.789062 C 37.773438 38.789062 38.476562 38.859375 39.175781 38.996094 C 39.875 39.136719 40.554688 39.34375 41.210938 39.613281 C 41.871094 39.886719 42.496094 40.21875 43.089844 40.617188 C 43.679688 41.011719 44.230469 41.460938 44.734375 41.964844 C 45.238281 42.464844 45.6875 43.015625 46.082031 43.605469 C 46.476562 44.199219 46.8125 44.820312 47.085938 45.480469 C 47.359375 46.136719 47.5625 46.8125 47.703125 47.511719 C 47.839844 48.210938 47.910156 48.914062 47.910156 49.625 Z M 47.910156 49.625 " fill-opacity="1" fill-rule="nonzero"/><path fill="#ffffff" d="M 77.59375 64.65625 C 77.59375 65.292969 77.53125 65.921875 77.410156 66.546875 C 77.285156 67.167969 77.101562 67.773438 76.855469 68.363281 C 76.613281 68.949219 76.3125 69.507812 75.960938 70.035156 C 75.605469 70.566406 75.203125 71.054688 74.753906 71.503906 C 74.304688 71.953125 73.816406 72.355469 73.285156 72.707031 C 72.757812 73.0625 72.195312 73.359375 71.609375 73.601562 C 71.019531 73.847656 70.414062 74.03125 69.789062 74.152344 C 69.164062 74.277344 68.535156 74.339844 67.898438 74.339844 C 67.261719 74.339844 66.632812 74.277344 66.007812 74.152344 C 65.382812 74.03125 64.777344 73.847656 64.1875 73.601562 C 63.597656 73.359375 63.039062 73.0625 62.511719 72.707031 C 61.980469 72.355469 61.492188 71.953125 61.042969 71.503906 C 60.589844 71.054688 60.191406 70.566406 59.835938 70.035156 C 59.480469 69.507812 59.183594 68.949219 58.941406 68.363281 C 58.695312 67.773438 58.511719 67.167969 58.386719 66.546875 C 58.265625 65.921875 58.203125 65.292969 58.203125 64.65625 C 58.203125 64.019531 58.265625 63.390625 58.386719 62.765625 C 58.511719 62.144531 58.695312 61.539062 58.941406 60.949219 C 59.183594 60.363281 59.480469 59.804688 59.835938 59.277344 C 60.191406 58.746094 60.589844 58.257812 61.042969 57.808594 C 61.492188 57.359375 61.980469 56.957031 62.511719 56.605469 C 63.039062 56.25 63.597656 55.953125 64.1875 55.710938 C 64.777344 55.464844 65.382812 55.28125 66.007812 55.15625 C 66.632812 55.035156 67.261719 54.972656 67.898438 54.972656 C 68.535156 54.972656 69.164062 55.035156 69.789062 55.15625 C 70.414062 55.28125 71.019531 55.464844 71.609375 55.710938 C 72.195312 55.953125 72.757812 56.25 73.285156 56.605469 C 73.816406 56.957031 74.304688 57.359375 74.753906 57.808594 C 75.203125 58.257812 75.605469 58.746094 75.960938 59.277344 C 76.3125 59.804688 76.613281 60.363281 76.855469 60.949219 C 77.101562 61.539062 77.285156 62.144531 77.410156 62.765625 C 77.53125 63.390625 77.59375 64.019531 77.59375 64.65625 Z M 77.59375 64.65625 " fill-opacity="1" fill-rule="nonzero"/><path fill="#ffffff" d="M 67.898438 74.671875 C 62.367188 74.671875 57.867188 70.179688 57.867188 64.65625 C 57.867188 59.128906 62.367188 54.636719 67.898438 54.636719 C 73.429688 54.636719 77.929688 59.128906 77.929688 64.65625 C 77.929688 70.179688 73.425781 74.671875 67.898438 74.671875 Z M 67.898438 55.3125 C 62.738281 55.3125 58.535156 59.503906 58.535156 64.664062 C 58.535156 69.820312 62.734375 74.011719 67.898438 74.011719 C 73.0625 74.011719 77.261719 69.820312 77.261719 64.664062 C 77.261719 59.503906 73.058594 55.3125 67.898438 55.3125 Z M 67.898438 55.3125 " fill-opacity="1" fill-rule="nonzero"/><path fill="#ffffff" d="M 97.800781 77.527344 C 97.800781 78.113281 97.746094 78.691406 97.628906 79.265625 C 97.515625 79.839844 97.347656 80.398438 97.121094 80.9375 C 96.898438 81.480469 96.625 81.992188 96.296875 82.480469 C 95.972656 82.96875 95.601562 83.417969 95.1875 83.832031 C 94.773438 84.246094 94.320312 84.617188 93.832031 84.941406 C 93.347656 85.265625 92.832031 85.539062 92.289062 85.765625 C 91.75 85.988281 91.191406 86.15625 90.613281 86.273438 C 90.039062 86.386719 89.460938 86.445312 88.875 86.445312 C 88.285156 86.445312 87.707031 86.386719 87.132812 86.273438 C 86.554688 86.15625 85.996094 85.988281 85.457031 85.765625 C 84.914062 85.539062 84.398438 85.265625 83.914062 84.941406 C 83.425781 84.617188 82.972656 84.246094 82.558594 83.832031 C 82.144531 83.417969 81.773438 82.96875 81.449219 82.480469 C 81.125 81.992188 80.847656 81.480469 80.625 80.9375 C 80.398438 80.398438 80.230469 79.839844 80.117188 79.265625 C 80 78.691406 79.945312 78.113281 79.945312 77.527344 C 79.945312 76.941406 80 76.359375 80.117188 75.785156 C 80.230469 75.210938 80.398438 74.652344 80.625 74.113281 C 80.847656 73.574219 81.125 73.058594 81.449219 72.570312 C 81.773438 72.085938 82.144531 71.632812 82.558594 71.21875 C 82.972656 70.804688 83.425781 70.4375 83.914062 70.109375 C 84.398438 69.785156 84.914062 69.511719 85.457031 69.285156 C 85.996094 69.0625 86.554688 68.894531 87.132812 68.78125 C 87.707031 68.664062 88.285156 68.609375 88.875 68.609375 C 89.460938 68.609375 90.039062 68.664062 90.613281 68.78125 C 91.191406 68.894531 91.75 69.0625 92.289062 69.285156 C 92.832031 69.511719 93.347656 69.785156 93.832031 70.109375 C 94.320312 70.4375 94.773438 70.804688 95.1875 71.21875 C 95.601562 71.632812 95.972656 72.085938 96.296875 72.570312 C 96.625 73.058594 96.898438 73.574219 97.121094 74.113281 C 97.347656 74.652344 97.515625 75.210938 97.628906 75.785156 C 97.746094 76.359375 97.800781 76.941406 97.800781 77.527344 Z M 97.800781 77.527344 " fill-opacity="1" fill-rule="nonzero"/><path fill="#ffffff" d="M 88.875 86.777344 C 83.769531 86.777344 79.609375 82.625 79.609375 77.527344 C 79.609375 72.425781 83.769531 68.273438 88.875 68.273438 C 93.976562 68.273438 98.136719 72.425781 98.136719 77.527344 C 98.136719 82.625 93.984375 86.777344 88.875 86.777344 Z M 88.875 68.941406 C 84.136719 68.941406 80.277344 72.792969 80.277344 77.527344 C 80.277344 82.257812 84.136719 86.109375 88.875 86.109375 C 93.613281 86.109375 97.46875 82.257812 97.46875 77.527344 C 97.46875 72.792969 93.617188 68.941406 88.875 68.941406 Z M 88.875 68.941406 " fill-opacity="1" fill-rule="nonzero"/></svg>