<?xml version="1.0" encoding="utf-8"?>
<!-- Generator: Adobe Illustrator 23.0.1, SVG Export Plug-In . SVG Version: 6.00 Build 0)  -->
<svg version="1.1" id="Layer_1" xmlns="http://www.w3.org/2000/svg" xmlns:xlink="http://www.w3.org/1999/xlink" x="0px" y="0px"
	 viewBox="0 0 841.89 595.28" style="enable-background:new 0 0 841.89 595.28;" xml:space="preserve">
<style type="text/css">
	.st0{fill:url(#SVGID_1_);}
	.st1{fill:url(#SVGID_2_);}
	.st2{fill:url(#SVGID_3_);}
	.st3{fill:url(#SVGID_4_);}
	.st4{fill:url(#SVGID_5_);}
	.st5{fill:url(#SVGID_6_);}
	.st6{fill:url(#SVGID_7_);}
	.st7{fill:url(#SVGID_8_);}
	.st8{fill:url(#SVGID_9_);}
	.st9{fill:url(#SVGID_10_);}
	.st10{fill:url(#SVGID_11_);}
	.st11{fill:url(#SVGID_12_);}
	.st12{fill:url(#SVGID_13_);}
	.st13{fill:url(#SVGID_14_);}
	.st14{fill:url(#SVGID_15_);}
	.st15{fill:url(#SVGID_16_);}
	.st16{fill:#391D5D;}
	.st17{fill:#743A96;}
	.st18{fill:#8E69AD;}
	.st19{fill:#FFFFFF;}
</style>
<g>
	<g>
		<linearGradient id="SVGID_1_" gradientUnits="userSpaceOnUse" x1="678.353" y1="42.0128" x2="311.9886" y2="146.2814">
			<stop  offset="0.6284" style="stop-color:#743A96"/>
			<stop  offset="1" style="stop-color:#391C56"/>
		</linearGradient>
		<path class="st0" d="M323.16,148.15c0,0,20.33-17.29,40.42-24.65c0,0-19.51,11.45-32.13,25.35L323.16,148.15z"/>
		<linearGradient id="SVGID_2_" gradientUnits="userSpaceOnUse" x1="678.8022" y1="43.5911" x2="312.4378" y2="147.8597">
			<stop  offset="0.6284" style="stop-color:#743A96"/>
			<stop  offset="1" style="stop-color:#391C56"/>
		</linearGradient>
		<path class="st1" d="M335.31,148.85l16.59-2.1c0,0,8.68-16.67,19.51-25.78C371.41,120.96,347.81,133.27,335.31,148.85z"/>
		<linearGradient id="SVGID_3_" gradientUnits="userSpaceOnUse" x1="679.0185" y1="44.3512" x2="312.6541" y2="148.6198">
			<stop  offset="0.6284" style="stop-color:#743A96"/>
			<stop  offset="1" style="stop-color:#391C56"/>
		</linearGradient>
		<path class="st2" d="M376.78,119.72c0,0-12.23,7.94-19.55,26.33l22.43-5.84L376.78,119.72z"/>
		<linearGradient id="SVGID_4_" gradientUnits="userSpaceOnUse" x1="679.0405" y1="44.4288" x2="312.6762" y2="148.6973">
			<stop  offset="0.6284" style="stop-color:#743A96"/>
			<stop  offset="1" style="stop-color:#391C56"/>
		</linearGradient>
		<path class="st3" d="M379.27,119.33l5.45,19.24c0,0,11.37-2.8,21.96-7.71C406.69,130.85,393.14,120.65,379.27,119.33z"/>
		<linearGradient id="SVGID_5_" gradientUnits="userSpaceOnUse" x1="678.7377" y1="43.3645" x2="312.3733" y2="147.633">
			<stop  offset="0.6284" style="stop-color:#743A96"/>
			<stop  offset="1" style="stop-color:#391C56"/>
		</linearGradient>
		<path class="st4" d="M384.84,117.48c0,0,26.21-1.97,42.49,4.42c0,0-10.75,4.52-15.81,7.05
			C411.52,128.95,398.35,120.07,384.84,117.48z"/>
		<linearGradient id="SVGID_6_" gradientUnits="userSpaceOnUse" x1="678.0933" y1="41.1005" x2="311.729" y2="145.3691">
			<stop  offset="0.6284" style="stop-color:#743A96"/>
			<stop  offset="1" style="stop-color:#391C56"/>
		</linearGradient>
		<path class="st5" d="M391.19,114.65c0,0,31.62-4.21,48.13-0.78l-7.63,5.45C431.69,119.33,409.8,114.97,391.19,114.65z"/>
		<linearGradient id="SVGID_7_" gradientUnits="userSpaceOnUse" x1="688.1638" y1="76.4848" x2="321.7995" y2="180.7534">
			<stop  offset="0.6284" style="stop-color:#743A96"/>
			<stop  offset="1" style="stop-color:#391C56"/>
		</linearGradient>
		<path class="st6" d="M354.58,152.12c0,0,20.33-4.32,26.87-6.08l8.06,34.58c0,0-28.74,9.11-44.04,10.87
			C345.47,191.49,346.64,168.73,354.58,152.12z"/>
		<linearGradient id="SVGID_8_" gradientUnits="userSpaceOnUse" x1="688.0485" y1="76.0796" x2="321.6841" y2="180.3482">
			<stop  offset="0.6284" style="stop-color:#743A96"/>
			<stop  offset="1" style="stop-color:#391C56"/>
		</linearGradient>
		<path class="st7" d="M386.71,143.71l10.51,34.11c0,0,27.34-7.59,41.59-13.67c0,0-15.54-18.97-26.6-28.55L386.71,143.71z"/>
		<linearGradient id="SVGID_9_" gradientUnits="userSpaceOnUse" x1="687.195" y1="73.0807" x2="320.8306" y2="177.3492">
			<stop  offset="0.6284" style="stop-color:#743A96"/>
			<stop  offset="1" style="stop-color:#391C56"/>
		</linearGradient>
		<path class="st8" d="M418.6,133.66l17.84-9.27c0,0,25.86,9.85,41.28,22.59c0,0-15.3,8.18-31.43,14.72
			C446.29,161.7,430.29,142.19,418.6,133.66z"/>
		<linearGradient id="SVGID_10_" gradientUnits="userSpaceOnUse" x1="685.502" y1="67.132" x2="319.1376" y2="171.4005">
			<stop  offset="0.6284" style="stop-color:#743A96"/>
			<stop  offset="1" style="stop-color:#391C56"/>
		</linearGradient>
		<path class="st9" d="M441.35,121.9l7.55-6.31c0,0,25,4.36,47.74,17.29c0,0-8.3,7.96-13.86,10.83
			C482.78,143.71,463.97,129.65,441.35,121.9z"/>
		<linearGradient id="SVGID_11_" gradientUnits="userSpaceOnUse" x1="701.5179" y1="123.4067" x2="335.1536" y2="227.6753">
			<stop  offset="0.6284" style="stop-color:#743A96"/>
			<stop  offset="1" style="stop-color:#391C56"/>
		</linearGradient>
		<path class="st10" d="M400.15,185.69l43.69-14.82c0,0,16.01,23.19,24.3,41.88l-54.91,18.58L400.15,185.69z"/>
		<linearGradient id="SVGID_12_" gradientUnits="userSpaceOnUse" x1="700.0522" y1="118.2565" x2="333.6878" y2="222.5251">
			<stop  offset="0.6284" style="stop-color:#743A96"/>
			<stop  offset="1" style="stop-color:#391C56"/>
		</linearGradient>
		<path class="st11" d="M451.63,168.16c0,0,23.05-9.81,33.1-15.42c0,0,15.54,11.41,34.46,36.53c0,0-22.14,12.38-41.82,19.16
			L451.63,168.16z"/>
		<linearGradient id="SVGID_13_" gradientUnits="userSpaceOnUse" x1="697.5654" y1="109.5189" x2="331.2011" y2="213.7875">
			<stop  offset="0.6284" style="stop-color:#743A96"/>
			<stop  offset="1" style="stop-color:#391C56"/>
		</linearGradient>
		<path class="st12" d="M490.22,149.43c0,0,10.28-6.54,14.72-12.27c0,0,26.52,17.15,38.55,33.4c0,0-6.95,8.77-18.34,15.2
			C525.15,185.76,501.2,155.97,490.22,149.43z"/>
		<linearGradient id="SVGID_14_" gradientUnits="userSpaceOnUse" x1="715.888" y1="173.8981" x2="349.5236" y2="278.1667">
			<stop  offset="0.6284" style="stop-color:#743A96"/>
			<stop  offset="1" style="stop-color:#391C56"/>
		</linearGradient>
		<path class="st13" d="M481.69,217.31c0,0,38.09-16.59,42.06-20.09c0,0,16.28,23.05,23.29,47.67c0,0-29.44,16.67-45.33,21.34
			L481.69,217.31z"/>
		<linearGradient id="SVGID_15_" gradientUnits="userSpaceOnUse" x1="712.915" y1="163.4521" x2="346.5507" y2="267.7206">
			<stop  offset="0.6284" style="stop-color:#743A96"/>
			<stop  offset="1" style="stop-color:#391C56"/>
		</linearGradient>
		<path class="st14" d="M530.76,193.36c0,0,11.8-7.24,18.69-15.3c0,0,19.24,25.7,23.91,46.26c0,0-7.56,9.19-19.63,16.36
			C553.74,240.67,542.99,211.93,530.76,193.36z"/>
		<linearGradient id="SVGID_16_" gradientUnits="userSpaceOnUse" x1="729.5281" y1="221.825" x2="363.1638" y2="326.0936">
			<stop  offset="0.6284" style="stop-color:#743A96"/>
			<stop  offset="1" style="stop-color:#391C56"/>
		</linearGradient>
		<path class="st15" d="M556.85,250.49c0,0,13.4-7.94,19.78-15.89c0,0,7.01,28.66,3.27,52.03c0,0-8.1,10.13-17.13,13.4
			C562.77,300.02,561.1,274.91,556.85,250.49z"/>
	</g>
	<path class="st16" d="M260.89,279.23c0,0,118,64.02,125.83-93.46c0,0,37.42,102.12-14.85,276.42
		C371.86,462.18,395.71,385.08,260.89,279.23z"/>
	<path class="st17" d="M353.57,291.46c0,0,60.75,104.06,141.13-25.24c0,0-42.21,131.47-136.15,216.52
		C358.55,482.74,413.07,419.81,353.57,291.46z"/>
	<path class="st18" d="M416.19,311.08c0,0,45.72,138.25,140.66,12.89c0,0-37.54,126.99-198.3,158.77
		C358.55,482.74,426.4,416.14,416.19,311.08z"/>
	<circle class="st16" cx="312.13" cy="220.87" r="36.29"/>
	<g>
		<circle class="st17" cx="415.26" cy="271.21" r="32.42"/>
		<path class="st19" d="M415.25,304.74c-18.49,0-33.54-15.04-33.54-33.54c0-18.49,15.04-33.54,33.54-33.54
			c18.49,0,33.54,15.04,33.54,33.54C448.79,289.7,433.75,304.74,415.25,304.74z M415.25,239.9c-17.26,0-31.3,14.04-31.3,31.3
			c0,17.26,14.04,31.3,31.3,31.3c17.26,0,31.31-14.04,31.31-31.3C446.56,253.94,432.52,239.9,415.25,239.9z"/>
	</g>
	<g>
		<circle class="st18" cx="485.41" cy="314.3" r="29.86"/>
		<path class="st19" d="M485.41,345.27c-17.08,0-30.98-13.9-30.98-30.98c0-17.08,13.9-30.98,30.98-30.98s30.98,13.9,30.98,30.98
			C516.39,331.38,502.49,345.27,485.41,345.27z M485.41,285.55c-15.85,0-28.75,12.89-28.75,28.75c0,15.85,12.89,28.74,28.75,28.74
			c15.85,0,28.75-12.89,28.75-28.74C514.16,298.45,501.26,285.55,485.41,285.55z"/>
	</g>
</g>
</svg>
