<svg xmlns="http://www.w3.org/2000/svg" xmlns:xlink="http://www.w3.org/1999/xlink" version="1.1" id="Layer_1" x="0px" y="0px" viewBox="0 0 841.89 595.28" style="enable-background:new 0 0 841.89 595.28;" xml:space="preserve">
<style type="text/css">
	.st0{fill:#ffffff;}
	.st1{fill:url(#SVGID_1_);}
	.st2{fill:url(#SVGID_2_);}
	.st3{fill:url(#SVGID_3_);}
	.st4{fill:url(#SVGID_4_);}
	.st5{fill:url(#SVGID_5_);}
	.st6{fill:url(#SVGID_6_);}
	.st7{fill:url(#SVGID_7_);}
	.st8{fill:url(#SVGID_8_);}
	.st9{fill:url(#SVGID_9_);}
	.st10{fill:url(#SVGID_10_);}
	.st11{fill:url(#SVGID_11_);}
	.st12{fill:url(#SVGID_12_);}
	.st13{fill:url(#SVGID_13_);}
	.st14{fill:url(#SVGID_14_);}
	.st15{fill:url(#SVGID_15_);}
	.st16{fill:url(#SVGID_16_);}
	.st17{fill:#ffffff;}
	.st18{fill:#ffffff;}
	.st19{fill:#ffffff;}
</style>
<g>
	<g>
		<g>
			<g>
				<path class="st0" d="M410.82,335.54c1.67,0,3,0.41,4,1.22c1,0.81,1.57,1.94,1.71,3.36h-3.04c-0.26-1.39-1.15-2.08-2.68-2.08      c-1.1,0-1.98,0.42-2.62,1.26c-0.64,0.84-0.96,1.99-0.96,3.46c0,1.5,0.31,2.68,0.94,3.54c0.63,0.86,1.49,1.29,2.58,1.29      c0.99,0,1.74-0.28,2.27-0.84c0.53-0.56,0.8-1.36,0.81-2.42h-3.25v-2.31h5.89v7.53h-2.39v-1.48h-0.04      c-0.83,1.17-2.17,1.75-4,1.75c-1.76,0-3.16-0.63-4.19-1.9c-1.03-1.26-1.55-2.99-1.55-5.17c0-2.23,0.58-4,1.75-5.29      C407.23,336.19,408.81,335.54,410.82,335.54z" fill="#ffffff"/>
				<path class="st0" d="M426.18,335.85v11.28h6.47v2.43h-9.3v-13.71H426.18z" fill="#ffffff"/>
				<path class="st0" d="M438.6,337.46c1.15-1.28,2.74-1.92,4.76-1.92s3.6,0.64,4.76,1.92c1.16,1.28,1.73,3.03,1.73,5.25      s-0.58,3.97-1.73,5.25c-1.16,1.28-2.74,1.92-4.76,1.92s-3.6-0.64-4.76-1.92c-1.16-1.28-1.73-3.03-1.73-5.25      S437.45,338.74,438.6,337.46z M445.96,339.29c-0.64-0.83-1.51-1.24-2.61-1.24c-1.1,0-1.97,0.41-2.61,1.24      c-0.64,0.83-0.95,1.97-0.95,3.42c0,1.45,0.32,2.59,0.95,3.42c0.64,0.83,1.5,1.24,2.61,1.24c1.1,0,1.97-0.41,2.61-1.24      c0.64-0.83,0.95-1.97,0.95-3.42C446.92,341.26,446.6,340.12,445.96,339.29z" fill="#ffffff"/>
				<path class="st0" d="M455.99,349.56v-13.71h4.93c1.66,0,2.9,0.31,3.74,0.94c0.83,0.63,1.25,1.49,1.25,2.58      c0,1.54-0.8,2.61-2.39,3.2v0.04c0.94,0.21,1.62,0.57,2.06,1.09c0.44,0.52,0.66,1.22,0.66,2.11c0,1.16-0.43,2.07-1.3,2.74      c-0.87,0.67-2.06,1.01-3.59,1.01H455.99z M460.95,338.16h-2.14v3.33h2c0.82,0,1.42-0.14,1.8-0.4c0.38-0.27,0.57-0.7,0.57-1.29      c0-0.56-0.18-0.98-0.53-1.24C462.31,338.29,461.74,338.16,460.95,338.16z M460.84,343.73h-2.02v3.5h2.1      c0.86,0,1.48-0.14,1.87-0.41c0.38-0.28,0.58-0.71,0.58-1.3c0-0.63-0.2-1.08-0.59-1.37S461.74,343.73,460.84,343.73z" fill="#ffffff"/>
				<path class="st0" d="M480.81,349.56l-1.06-3.35h-5.26l-1.08,3.35h-2.97l4.76-13.71h3.81l4.76,13.71H480.81z M475.26,343.78h3.72      l-0.29-0.9c-0.63-2-1.15-3.79-1.56-5.35h-0.04c-0.48,1.8-0.99,3.58-1.54,5.35L475.26,343.78z" fill="#ffffff"/>
				<path class="st0" d="M491.71,335.85v11.28h6.47v2.43h-9.3v-13.71H491.71z" fill="#ffffff"/>
				<path class="st0" d="M521.55,335.85v2.43h-6.64v3.1h6.2v2.41h-6.2v3.35h6.82v2.43h-9.65v-13.71H521.55z" fill="#ffffff"/>
				<path class="st0" d="M538.38,335.85l-4.26,13.71h-3.54l-4.26-13.71h2.89l1.64,5.33c0.59,1.88,1.08,3.74,1.48,5.6h0.04      c0.36-1.63,0.85-3.5,1.48-5.6l1.64-5.33H538.38z" fill="#ffffff"/>
				<path class="st0" d="M553.01,335.85v2.43h-6.64v3.1h6.2v2.41h-6.2v3.35h6.82v2.43h-9.65v-13.71H553.01z" fill="#ffffff"/>
				<path class="st0" d="M571.36,335.85v13.71h-4.02l-2.66-5.56c-0.98-2.07-1.81-3.95-2.5-5.66h-0.04c0.1,2.12,0.15,4.1,0.15,5.95      v5.28h-2.71v-13.71h4.02l2.66,5.56c0.98,2.07,1.81,3.95,2.5,5.66h0.04c-0.1-2.12-0.15-4.1-0.15-5.95v-5.28H571.36z" fill="#ffffff"/>
				<path class="st0" d="M588.21,335.85v2.43h-4.31v11.28h-2.83v-11.28h-4.31v-2.43H588.21z" fill="#ffffff"/>
				<path class="st0" d="M597.76,335.54c1.71,0,3,0.38,3.88,1.15c0.88,0.76,1.32,1.88,1.32,3.36h-2.87c0-0.72-0.21-1.27-0.62-1.66      c-0.41-0.39-1-0.59-1.77-0.59c-0.63,0-1.14,0.14-1.52,0.41c-0.39,0.28-0.58,0.64-0.58,1.09c0,0.5,0.21,0.88,0.63,1.14      c0.42,0.26,1.2,0.53,2.36,0.81c0.63,0.15,1.13,0.29,1.51,0.4c0.38,0.12,0.81,0.29,1.28,0.52c0.47,0.23,0.84,0.49,1.1,0.76      c0.26,0.28,0.47,0.64,0.66,1.08c0.18,0.44,0.27,0.95,0.27,1.53c0,1.3-0.49,2.34-1.47,3.14c-0.98,0.8-2.27,1.19-3.88,1.19      c-1.73,0-3.09-0.42-4.07-1.25c-0.98-0.83-1.47-2.02-1.47-3.56h2.93c0,1.68,0.89,2.52,2.66,2.52c0.72,0,1.29-0.16,1.72-0.47      c0.43-0.31,0.65-0.74,0.65-1.28c0-0.56-0.19-0.96-0.58-1.18c-0.39-0.22-1.14-0.48-2.25-0.76c-0.67-0.17-1.18-0.31-1.53-0.41      c-0.35-0.11-0.78-0.28-1.29-0.51c-0.51-0.23-0.89-0.48-1.14-0.74c-0.26-0.26-0.48-0.62-0.67-1.07      c-0.19-0.45-0.29-0.96-0.29-1.54c0-1.21,0.47-2.19,1.41-2.94C595.04,335.92,596.26,335.54,597.76,335.54z" fill="#ffffff"/>
			</g>
		</g>
		<path class="st0" d="M429.99,243.95v79.81h-25.37v-79.81H429.99z" fill="#ffffff"/>
		<path class="st0" d="M508.57,283.85c-2.05,3.8-4.94,6.89-8.66,9.28l16.54,30.63h-25.93l-12.74-25.6h-8.94v25.6h-23.81v-79.81h34.2    c6.11,0,11.23,0.69,15.37,2.07c4.14,1.38,7.47,3.24,10,5.59c2.53,2.35,4.34,5.12,5.42,8.33c1.08,3.2,1.62,6.59,1.62,10.17    C511.64,275.47,510.61,280.05,508.57,283.85z M477.32,279.72c3.8,0,6.5-0.71,8.1-2.12c1.6-1.42,2.4-3.54,2.4-6.37    c0-2.83-0.8-4.96-2.4-6.37c-1.6-1.42-4.3-2.12-8.1-2.12h-8.5v16.99H477.32z" fill="#ffffff"/>
		<path class="st0" d="M548.3,310.9l-3.47,12.85H519.8l25.93-79.81h31.3l25.71,79.81h-25.6l-3.58-12.85H548.3z M568.2,291.12    l-7.27-26.49l-7.27,26.49H568.2z" fill="#ffffff"/>
	</g>
	<g>
		<g>
			<linearGradient id="SVGID_1_" gradientUnits="userSpaceOnUse" x1="425.5615" y1="183.0907" x2="261.3912" y2="229.8141" fill="#ffffff">
				<stop offset="0.6284" style="stop-color:#ffffff" fill="#ffffff"/>
				<stop offset="1" style="stop-color:#ffffff" fill="#ffffff"/>
			</linearGradient>
			<path class="st1" d="M266.4,230.65c0,0,9.11-7.75,18.11-11.05c0,0-8.74,5.13-14.4,11.36L266.4,230.65z" fill="#ffffff"/>
			<linearGradient id="SVGID_2_" gradientUnits="userSpaceOnUse" x1="425.7627" y1="183.798" x2="261.5925" y2="230.5214" fill="#ffffff">
				<stop offset="0.6284" style="stop-color:#ffffff" fill="#ffffff"/>
				<stop offset="1" style="stop-color:#ffffff" fill="#ffffff"/>
			</linearGradient>
			<path class="st2" d="M271.84,230.96l7.43-0.94c0,0,3.89-7.47,8.74-11.55C288.02,218.47,277.44,223.98,271.84,230.96z" fill="#ffffff"/>
			<linearGradient id="SVGID_3_" gradientUnits="userSpaceOnUse" x1="425.8597" y1="184.1386" x2="261.6895" y2="230.862" fill="#ffffff">
				<stop offset="0.6284" style="stop-color:#ffffff" fill="#ffffff"/>
				<stop offset="1" style="stop-color:#ffffff" fill="#ffffff"/>
			</linearGradient>
			<path class="st3" d="M290.42,217.91c0,0-5.48,3.56-8.76,11.8l10.05-2.62L290.42,217.91z" fill="#ffffff"/>
			<linearGradient id="SVGID_4_" gradientUnits="userSpaceOnUse" x1="425.8696" y1="184.1733" x2="261.6993" y2="230.8967" fill="#ffffff">
				<stop offset="0.6284" style="stop-color:#ffffff" fill="#ffffff"/>
				<stop offset="1" style="stop-color:#ffffff" fill="#ffffff"/>
			</linearGradient>
			<path class="st4" d="M291.54,217.74l2.44,8.62c0,0,5.1-1.26,9.84-3.46C303.83,222.9,297.75,218.33,291.54,217.74z" fill="#ffffff"/>
			<linearGradient id="SVGID_5_" gradientUnits="userSpaceOnUse" x1="425.7338" y1="183.6964" x2="261.5636" y2="230.4198" fill="#ffffff">
				<stop offset="0.6284" style="stop-color:#ffffff" fill="#ffffff"/>
				<stop offset="1" style="stop-color:#ffffff" fill="#ffffff"/>
			</linearGradient>
			<path class="st5" d="M294.04,216.91c0,0,11.74-0.88,19.04,1.98c0,0-4.82,2.02-7.08,3.16     C305.99,222.05,300.09,218.07,294.04,216.91z" fill="#ffffff"/>
			<linearGradient id="SVGID_6_" gradientUnits="userSpaceOnUse" x1="425.4451" y1="182.6819" x2="261.2749" y2="229.4053" fill="#ffffff">
				<stop offset="0.6284" style="stop-color:#ffffff" fill="#ffffff"/>
				<stop offset="1" style="stop-color:#ffffff" fill="#ffffff"/>
			</linearGradient>
			<path class="st6" d="M296.88,215.64c0,0,14.17-1.88,21.57-0.35l-3.42,2.44C315.03,217.74,305.22,215.78,296.88,215.64z" fill="#ffffff"/>
			<linearGradient id="SVGID_7_" gradientUnits="userSpaceOnUse" x1="429.9578" y1="198.5379" x2="265.7875" y2="245.2613" fill="#ffffff">
				<stop offset="0.6284" style="stop-color:#ffffff" fill="#ffffff"/>
				<stop offset="1" style="stop-color:#ffffff" fill="#ffffff"/>
			</linearGradient>
			<path class="st7" d="M280.48,232.43c0,0,9.11-1.94,12.04-2.72l3.61,15.5c0,0-12.88,4.08-19.74,4.87     C276.39,250.07,276.92,239.87,280.48,232.43z" fill="#ffffff"/>
			<linearGradient id="SVGID_8_" gradientUnits="userSpaceOnUse" x1="429.9061" y1="198.3563" x2="265.7359" y2="245.0797" fill="#ffffff">
				<stop offset="0.6284" style="stop-color:#ffffff" fill="#ffffff"/>
				<stop offset="1" style="stop-color:#ffffff" fill="#ffffff"/>
			</linearGradient>
			<path class="st8" d="M294.87,228.66l4.71,15.29c0,0,12.25-3.4,18.64-6.13c0,0-6.96-8.5-11.92-12.79L294.87,228.66z" fill="#ffffff"/>
			<linearGradient id="SVGID_9_" gradientUnits="userSpaceOnUse" x1="429.5236" y1="197.0124" x2="265.3534" y2="243.7358" fill="#ffffff">
				<stop offset="0.6284" style="stop-color:#ffffff" fill="#ffffff"/>
				<stop offset="1" style="stop-color:#ffffff" fill="#ffffff"/>
			</linearGradient>
			<path class="st9" d="M309.17,224.16l7.99-4.15c0,0,11.59,4.42,18.5,10.12c0,0-6.86,3.66-14.08,6.6     C321.57,236.72,314.4,227.98,309.17,224.16z" fill="#ffffff"/>
			<linearGradient id="SVGID_10_" gradientUnits="userSpaceOnUse" x1="428.765" y1="194.3468" x2="264.5948" y2="241.0702" fill="#ffffff">
				<stop offset="0.6284" style="stop-color:#ffffff" fill="#ffffff"/>
				<stop offset="1" style="stop-color:#ffffff" fill="#ffffff"/>
			</linearGradient>
			<path class="st10" d="M319.36,218.89l3.39-2.83c0,0,11.2,1.95,21.39,7.75c0,0-3.72,3.57-6.21,4.85     C337.93,228.66,329.5,222.36,319.36,218.89z" fill="#ffffff"/>
			<linearGradient id="SVGID_11_" gradientUnits="userSpaceOnUse" x1="435.9418" y1="219.5639" x2="271.7716" y2="266.2873" fill="#ffffff">
				<stop offset="0.6284" style="stop-color:#ffffff" fill="#ffffff"/>
				<stop offset="1" style="stop-color:#ffffff" fill="#ffffff"/>
			</linearGradient>
			<path class="st11" d="M300.89,247.47l19.58-6.64c0,0,7.17,10.39,10.89,18.77l-24.61,8.32L300.89,247.47z" fill="#ffffff"/>
			<linearGradient id="SVGID_12_" gradientUnits="userSpaceOnUse" x1="435.285" y1="217.256" x2="271.1148" y2="263.9794" fill="#ffffff">
				<stop offset="0.6284" style="stop-color:#ffffff" fill="#ffffff"/>
				<stop offset="1" style="stop-color:#ffffff" fill="#ffffff"/>
			</linearGradient>
			<path class="st12" d="M323.96,239.62c0,0,10.33-4.4,14.83-6.91c0,0,6.96,5.11,15.44,16.37c0,0-9.92,5.55-18.74,8.59     L323.96,239.62z" fill="#ffffff"/>
			<linearGradient id="SVGID_13_" gradientUnits="userSpaceOnUse" x1="434.1707" y1="213.3406" x2="270.0005" y2="260.0641" fill="#ffffff">
				<stop offset="0.6284" style="stop-color:#ffffff" fill="#ffffff"/>
				<stop offset="1" style="stop-color:#ffffff" fill="#ffffff"/>
			</linearGradient>
			<path class="st13" d="M341.26,231.23c0,0,4.61-2.93,6.6-5.5c0,0,11.88,7.69,17.28,14.97c0,0-3.11,3.93-8.22,6.81     C356.91,247.51,346.18,234.16,341.26,231.23z" fill="#ffffff"/>
			<linearGradient id="SVGID_14_" gradientUnits="userSpaceOnUse" x1="442.3811" y1="242.1894" x2="278.2109" y2="288.9128" fill="#ffffff">
				<stop offset="0.6284" style="stop-color:#ffffff" fill="#ffffff"/>
				<stop offset="1" style="stop-color:#ffffff" fill="#ffffff"/>
			</linearGradient>
			<path class="st14" d="M337.44,261.64c0,0,17.07-7.43,18.85-9c0,0,7.29,10.33,10.44,21.36c0,0-13.19,7.47-20.31,9.56     L337.44,261.64z" fill="#ffffff"/>
			<linearGradient id="SVGID_15_" gradientUnits="userSpaceOnUse" x1="441.0489" y1="237.5084" x2="276.8787" y2="284.2318" fill="#ffffff">
				<stop offset="0.6284" style="stop-color:#ffffff" fill="#ffffff"/>
				<stop offset="1" style="stop-color:#ffffff" fill="#ffffff"/>
			</linearGradient>
			<path class="st15" d="M359.42,250.91c0,0,5.29-3.25,8.38-6.86c0,0,8.62,11.52,10.71,20.73c0,0-3.39,4.12-8.8,7.33     C369.72,272.11,364.9,259.23,359.42,250.91z" fill="#ffffff"/>
			<linearGradient id="SVGID_16_" gradientUnits="userSpaceOnUse" x1="448.4934" y1="263.6657" x2="284.3232" y2="310.3891" fill="#ffffff">
				<stop offset="0.6284" style="stop-color:#ffffff" fill="#ffffff"/>
				<stop offset="1" style="stop-color:#ffffff" fill="#ffffff"/>
			</linearGradient>
			<path class="st16" d="M371.12,276.51c0,0,6-3.56,8.86-7.12c0,0,3.14,12.84,1.47,23.31c0,0-3.63,4.54-7.68,6     C373.77,298.71,373.02,287.45,371.12,276.51z" fill="#ffffff"/>
		</g>
		<path class="st17" d="M238.49,289.39c0,0,52.88,28.69,56.38-41.88c0,0,16.77,45.76-6.65,123.86    C288.22,371.37,298.91,336.82,238.49,289.39z" fill="#ffffff"/>
		<path class="st0" d="M280.02,294.87c0,0,27.22,46.63,63.24-11.31c0,0-18.92,58.91-61.01,97.03    C282.26,380.59,306.69,352.39,280.02,294.87z" fill="#ffffff"/>
		<path class="st18" d="M308.08,303.66c0,0,20.49,61.95,63.03,5.78c0,0-16.82,56.91-88.86,71.15    C282.26,380.59,312.66,350.74,308.08,303.66z" fill="#ffffff"/>
		<circle class="st17" cx="261.46" cy="263.24" r="16.26" fill="#ffffff"/>
		<g>
			<circle class="st0" cx="307.67" cy="285.79" r="14.53" fill="#ffffff"/>
			<path class="st19" d="M307.67,300.82c-8.29,0-15.03-6.74-15.03-15.03s6.74-15.03,15.03-15.03c8.29,0,15.03,6.74,15.03,15.03     S315.95,300.82,307.67,300.82z M307.67,271.77c-7.73,0-14.03,6.29-14.03,14.03s6.29,14.03,14.03,14.03     c7.74,0,14.03-6.29,14.03-14.03S315.4,271.77,307.67,271.77z" fill="#ffffff"/>
		</g>
		<g>
			<circle class="st18" cx="339.1" cy="305.1" r="13.38" fill="#ffffff"/>
			<path class="st19" d="M339.1,318.98c-7.65,0-13.88-6.23-13.88-13.88s6.23-13.88,13.88-13.88s13.88,6.23,13.88,13.88     S346.76,318.98,339.1,318.98z M339.1,292.22c-7.1,0-12.88,5.78-12.88,12.88c0,7.1,5.78,12.88,12.88,12.88s12.88-5.78,12.88-12.88     C351.98,298,346.21,292.22,339.1,292.22z" fill="#ffffff"/>
		</g>
	</g>
</g>
</svg>